<svg data-v-423bf9ae="" xmlns="http://www.w3.org/2000/svg" viewBox="0 0 198.2933856881926 60" class="font"><!----><!----><!----><g data-v-423bf9ae="" id="6f455fc7-2c27-45e3-a4fd-35626a24a1e1" fill="black" transform="matrix(5.7526364568010235,0,0,5.7526364568010235,-6.4429504469109276,0)"><path d="M7.53 10.26L4.37 6.03L7.49 1.86L4.19 1.86L4.19 2.32L5.19 2.84L2.44 6.65L2.44 1.86L1.12 1.86L1.12 10.26L2.44 10.26L2.44 8.61L3.60 7.07L5.89 10.26ZM14.91 10.26L14.91 9.14C14.71 9.21 14.49 9.28 14.25 9.28C13.93 9.28 13.79 9.13 13.79 8.81L13.79 3.72L12.47 3.72L12.47 9.02C12.05 9.18 11.63 9.28 11.13 9.28C10.15 9.28 9.65 8.83 9.65 7.98L9.65 3.72L8.33 3.72L8.33 7.98C8.33 9.52 9.39 10.43 11.13 10.43C11.76 10.43 12.33 10.28 12.85 10.04C13.10 10.29 13.50 10.43 13.92 10.43C14.27 10.43 14.64 10.35 14.91 10.26ZM20.73 5.80L20.73 3.86C20.20 3.70 19.49 3.57 18.96 3.57C18.10 3.57 17.07 3.74 16.21 3.99L15.99 4.05L16.30 5.08L16.30 10.26L17.61 10.26L17.61 4.89C18.03 4.77 18.51 4.70 18.96 4.70C19.19 4.70 19.47 4.73 19.75 4.79L20.27 5.80ZM23.63 1.40C23.63 0.92 23.25 0.55 22.79 0.55C22.33 0.55 21.95 0.92 21.95 1.40C21.95 1.86 22.33 2.24 22.79 2.24C23.25 2.24 23.63 1.86 23.63 1.40ZM24.46 10.26L24.46 9.80L23.45 9.28L23.45 3.72L22.13 3.72L22.13 10.26ZM31.92 10.26L31.92 9.14C31.72 9.21 31.50 9.28 31.26 9.28C30.94 9.28 30.80 9.13 30.80 8.81L30.80 6.02C30.80 4.44 29.68 3.57 27.87 3.57C27.29 3.57 26.56 3.70 25.90 3.88L25.90 5.80L26.35 5.80L26.87 4.82C27.22 4.75 27.58 4.70 27.87 4.70C28.95 4.70 29.48 5.17 29.48 6.02L29.48 6.40L27.72 6.40C26.08 6.40 25.23 7.24 25.23 8.34C25.23 9.53 26.19 10.43 27.94 10.43C28.62 10.43 29.27 10.25 29.81 9.98C30.04 10.26 30.46 10.43 30.93 10.43C31.28 10.43 31.65 10.35 31.92 10.26ZM29.48 9.02C29.02 9.24 28.48 9.38 27.94 9.38C27.02 9.38 26.56 8.99 26.56 8.34C26.56 7.78 26.91 7.43 27.72 7.43L29.48 7.43ZM35.59 10.26L35.59 9.80L34.58 9.28L34.58 0L33.26 0L33.26 10.26Z"></path></g><!----><!----></svg>