<svg data-v-fde0c5aa="" xmlns="http://www.w3.org/2000/svg" viewBox="0 0 300 300" class="iconLeft"><!----><defs data-v-fde0c5aa=""><!----></defs><rect data-v-fde0c5aa="" fill="#FDEDDB" x="0" y="0" width="300px" height="300px" class="logo-background-square"></rect><defs data-v-fde0c5aa=""><!----></defs><g data-v-fde0c5aa="" id="767b1b17-b3ba-43be-a4de-368c50f7f49c" fill="#371C00" transform="matrix(4.130499712004258,0,0,4.130499712004258,112.9955101879588,128.45944337163357)"><path d="M7.53 10.26L4.37 6.03L7.49 1.86L4.19 1.86L4.19 2.32L5.19 2.84L2.44 6.65L2.44 1.86L1.12 1.86L1.12 10.26L2.44 10.26L2.44 8.61L3.60 7.07L5.89 10.26ZM14.91 10.26L14.91 9.14C14.71 9.21 14.49 9.28 14.25 9.28C13.93 9.28 13.79 9.13 13.79 8.81L13.79 3.72L12.47 3.72L12.47 9.02C12.05 9.18 11.63 9.28 11.13 9.28C10.15 9.28 9.65 8.83 9.65 7.98L9.65 3.72L8.33 3.72L8.33 7.98C8.33 9.52 9.39 10.43 11.13 10.43C11.76 10.43 12.33 10.28 12.85 10.04C13.10 10.29 13.50 10.43 13.92 10.43C14.27 10.43 14.64 10.35 14.91 10.26ZM20.73 5.80L20.73 3.86C20.20 3.70 19.49 3.57 18.96 3.57C18.10 3.57 17.07 3.74 16.21 3.99L15.99 4.05L16.30 5.08L16.30 10.26L17.61 10.26L17.61 4.89C18.03 4.77 18.51 4.70 18.96 4.70C19.19 4.70 19.47 4.73 19.75 4.79L20.27 5.80ZM23.63 1.40C23.63 0.92 23.25 0.55 22.79 0.55C22.33 0.55 21.95 0.92 21.95 1.40C21.95 1.86 22.33 2.24 22.79 2.24C23.25 2.24 23.63 1.86 23.63 1.40ZM24.46 10.26L24.46 9.80L23.45 9.28L23.45 3.72L22.13 3.72L22.13 10.26ZM31.92 10.26L31.92 9.14C31.72 9.21 31.50 9.28 31.26 9.28C30.94 9.28 30.80 9.13 30.80 8.81L30.80 6.02C30.80 4.44 29.68 3.57 27.87 3.57C27.29 3.57 26.56 3.70 25.90 3.88L25.90 5.80L26.35 5.80L26.87 4.82C27.22 4.75 27.58 4.70 27.87 4.70C28.95 4.70 29.48 5.17 29.48 6.02L29.48 6.40L27.72 6.40C26.08 6.40 25.23 7.24 25.23 8.34C25.23 9.53 26.19 10.43 27.94 10.43C28.62 10.43 29.27 10.25 29.81 9.98C30.04 10.26 30.46 10.43 30.93 10.43C31.28 10.43 31.65 10.35 31.92 10.26ZM29.48 9.02C29.02 9.24 28.48 9.38 27.94 9.38C27.02 9.38 26.56 8.99 26.56 8.34C26.56 7.78 26.91 7.43 27.72 7.43L29.48 7.43ZM35.59 10.26L35.59 9.80L34.58 9.28L34.58 0L33.26 0L33.26 10.26Z"></path></g><defs data-v-fde0c5aa=""><linearGradient data-v-fde0c5aa="" gradientTransform="rotate(25)" id="0ac900f5-e211-4b93-a71f-20c5398a68a6" x1="0%" y1="0%" x2="100%" y2="0%"><stop data-v-fde0c5aa="" offset="0%" stop-color="#F05000" stop-opacity="1"></stop><stop data-v-fde0c5aa="" offset="100%" stop-color="#F7AA00" stop-opacity="1"></stop></linearGradient></defs><g data-v-fde0c5aa="" id="28dcffa0-3fb9-4e39-8e54-95bf73d77b58" stroke="none" fill="url(#0ac900f5-e211-4b93-a71f-20c5398a68a6)" transform="matrix(0.8077708735637416,0,0,0.8077708735637416,31.821319905167115,109.61145632181292)"><style></style><path d="M89.125 10h-78a1 1 0 0 0-1 1v78a1 1 0 0 0 1 1h78a1 1 0 0 0 1-1V11a1 1 0 0 0-1-1zm-1 2v61.303H73.717v-1.248a6.229 6.229 0 0 0-6.222-6.222h-5.942c-.004-.021.003-.042-.002-.063l-1.271-5.362a17.002 17.002 0 0 0 7.326-14.016 17.049 17.049 0 0 0-8.426-14.723c.074-.456.111-.909.111-1.354a8.725 8.725 0 0 0-1.135-4.301l1.105-4.385a3.706 3.706 0 0 0 2.898-3.612V16.5a1 1 0 0 0-1-1h-21.26a1 1 0 0 0-1 1v1.517a3.705 3.705 0 0 0 2.898 3.612l1.104 4.385a8.722 8.722 0 0 0-1.135 4.301c0 .445.037.898.111 1.354a17.048 17.048 0 0 0-8.425 14.723 17.003 17.003 0 0 0 7.326 14.016l-1.27 5.362c-.005.021.002.042-.002.063h-6.501a6.229 6.229 0 0 0-6.222 6.222v1.248H12.125V12h76zM28.783 73.303v-1.248a4.227 4.227 0 0 1 4.222-4.222h34.49a4.227 4.227 0 0 1 4.222 4.222v1.248H28.783zm15.053-42.096a6.497 6.497 0 0 1-.068-.893c0-1.098.285-2.171.8-3.143l11.931.013a6.72 6.72 0 0 1 .793 3.13c0 .292-.026.591-.068.893H43.836zM57.49 20.472l-1.187 4.712-11.55-.012-1.184-4.7a1.001 1.001 0 0 0-.97-.756 1.701 1.701 0 0 1-1.699-1.699V17.5h19.26v.517a1.7 1.7 0 0 1-1.699 1.699 1 1 0 0 0-.971.756zM43.23 33.207h14.599a15.11 15.11 0 0 1 4.43 3.711H38.8a15.11 15.11 0 0 1 4.43-3.711zm-5.79 5.711h26.179a15.023 15.023 0 0 1 1.931 6.23H35.509a15.038 15.038 0 0 1 1.931-6.23zm28.143 8.23a15.017 15.017 0 0 1-1.881 6.587H37.358a15.017 15.017 0 0 1-1.881-6.587h30.106zm-3.225 8.587a15.155 15.155 0 0 1-3.708 3.354H42.409a15.157 15.157 0 0 1-3.708-3.354h23.657zM42.672 61.09h15.715l1.124 4.743H41.549l1.123-4.743zM12.125 88V75.303h76V88h-76z"></path><path d="M25.477 36.305a.997.997 0 0 0 1.414 0 .999.999 0 0 0 0-1.414l-8.155-8.154a.999.999 0 1 0-1.414 1.414l8.155 8.154zM31.485 33.529a.997.997 0 0 0 1.414 0 .999.999 0 0 0 0-1.414L21.792 21.008a.999.999 0 1 0-1.414 1.414l11.107 11.107zM61.082 78.104H39.345a1 1 0 0 0-1 1v5a1 1 0 0 0 1 1h21.737a1 1 0 0 0 1-1v-5a1 1 0 0 0-1-1zm-1 5H40.345v-3h19.737v3z"></path></g><!----></svg>